PathFileType	4	(X/Y/Z)	 s04c0203.trc
DataRate	CameraRate	NumFrames	NumMarkers	Units	OrigDataRate	OrigDataStartFrame	OrigNumFrames
200	200	4	50	mm	200	1	2000
Frame#	Time	racr			lacr			c7			jug			rlel			rdr			llel			ldr			s2			lic			ric			lasi			rasi			rpsi			lpsi			rgt			lgt			rth1			rth2			rth3			rth4			rlfc			rmfc			rsh1			rsh2			rsh3			rsh4			rlmal			rmmal			rcal			rtoe			rmt5			lth1			lth2			lth4			lth3			llfc			lmfc			lsh1			lsh2			lsh3			lsh4			llmal			lmmal			lcal			ltoe			lmt5			SBIKE			LBIKE			RBIKE			
		X1	Y1	Z1	X2	Y2	Z2	X3	Y3	Z3	X4	Y4	Z4	X5	Y5	Z5	X6	Y6	Z6	X7	Y7	Z7	X8	Y8	Z8	X9	Y9	Z9	X10	Y10	Z10	X11	Y11	Z11	X12	Y12	Z12	X13	Y13	Z13	X14	Y14	Z14	X15	Y15	Z15	X16	Y16	Z16	X17	Y17	Z17	X18	Y18	Z18	X19	Y19	Z19	X20	Y20	Z20	X21	Y21	Z21	X22	Y22	Z22	X23	Y23	Z23	X24	Y24	Z24	X25	Y25	Z25	X26	Y26	Z26	X27	Y27	Z27	X28	Y28	Z28	X29	Y29	Z29	X30	Y30	Z30	X31	Y31	Z31	X32	Y32	Z32	X33	Y33	Z33	X34	Y34	Z34	X35	Y35	Z35	X36	Y36	Z36	X37	Y37	Z37	X38	Y38	Z38	X39	Y39	Z39	X40	Y40	Z40	X41	Y41	Z41	X42	Y42	Z42	X43	Y43	Z43	X44	Y44	Z44	X45	Y45	Z45	X46	Y46	Z46	X47	Y47	Z47	X48	Y48	Z48	X49	Y49	Z49	X50	Y50	Z50	
1	0.0050	474.489403	1463.758161	-100.035197	483.273853	1449.393255	-401.571558	462.684211	1512.273576	-255.157134	468.869393	1364.793480	-251.298507	489.785054	1152.498571	5.718493	697.531865	942.506367	-53.520535	488.605147	1161.036951	-504.023799	705.408671	948.940622	-464.801973	-54.299142	1181.412422	-271.566220	104.246735	1195.240326	-418.564769	107.441000	1163.473202	-106.540982	139.834702	1144.542336	-376.130021	150.862829	1110.153053	-151.605201	-21.320643	1215.304303	-222.156850	-26.458722	1227.241753	-298.030160	50.429037	1102.671476	-96.584086	66.267365	1131.242758	-467.533573	122.097731	952.143284	-74.333125	170.822370	879.721972	-86.437540	181.460237	794.889661	-92.099930	201.309424	893.542645	-104.543939	216.186866	654.267099	-119.734557	190.264300	638.888604	-230.711127	150.315085	542.758958	-96.071251	135.352898	454.710941	-110.630642	75.387044	390.589694	-118.476675	163.042889	444.409272	-136.008214	22.356039	246.041259	-130.082560	42.123994	252.793250	-216.554058	-46.904901	209.709795	-172.056449	252.140236	207.413927	-151.177028	184.464527	179.181262	-98.305558	129.223136	1078.266911	-470.877920	214.888486	1068.398513	-473.593251	228.306836	1098.708962	-457.241022	286.346031	1015.455720	-483.214578	423.181232	930.358753	-461.489969	456.231616	912.082403	-352.352279	383.406674	823.472658	-478.935807	358.447259	742.076408	-456.178019	294.870637	680.325295	-452.231778	382.099217	733.356430	-426.329632	213.330459	559.923761	-437.277786	215.341432	573.949822	-350.283405	129.881044	541.477805	-393.244092	429.530304	510.193240	-402.227069	356.358417	477.495678	-463.201345	-176.836845	933.726267	-279.598665	-3.288058	85.685038	-484.677515	-14.811016	80.133315	-84.142243	
2	0.0100	474.529749	1463.750756	-100.138641	483.272363	1449.401612	-401.610258	462.669403	1512.274842	-255.221412	468.909173	1364.810166	-251.302069	489.823685	1152.540115	5.681706	697.522833	942.506233	-53.560487	488.590623	1161.030942	-504.056712	705.395537	948.927870	-464.837960	-54.273145	1181.423004	-271.595398	104.222656	1195.222172	-418.552250	107.458603	1163.441665	-106.579646	139.752176	1144.398617	-375.898843	150.872055	1110.144159	-151.613929	-21.269984	1215.314741	-222.247277	-26.576333	1227.394614	-297.961587	50.444661	1102.667555	-96.628085	66.275942	1131.237924	-467.567858	122.128186	952.143982	-74.365543	170.828754	879.729763	-86.442600	181.487183	794.905899	-92.121263	201.350329	893.542292	-104.570619	216.208815	654.279561	-119.759437	190.294427	638.924726	-230.709008	150.373822	542.773861	-96.089119	135.377813	454.702779	-110.636642	75.424042	390.592775	-118.470105	163.095184	444.423307	-136.030047	22.411147	246.041755	-130.083668	42.166621	252.812071	-216.568225	-46.848429	209.733386	-172.067718	252.195604	207.369586	-151.178075	184.512916	179.134753	-98.314470	129.231507	1078.253252	-470.916688	214.872003	1068.392351	-473.665139	228.316149	1098.700078	-457.281662	286.330348	1015.469920	-483.265154	423.181744	930.363980	-461.525238	456.208625	912.130320	-352.339848	383.381599	823.515783	-478.982803	358.433271	742.105720	-456.202161	294.857733	680.358503	-452.264477	382.084685	733.372390	-426.354173	213.305393	559.954818	-437.271102	215.292217	573.989645	-350.302813	129.864321	541.532810	-393.249457	429.495908	510.211280	-402.222022	356.320914	477.507222	-463.193649	-176.839616	933.726823	-279.607325	-3.301412	85.677987	-484.684120	-14.823031	80.142362	-84.138210	
3	0.0150	474.594706	1463.787934	-100.176235	483.291432	1449.420212	-401.679681	462.680708	1512.281329	-255.302585	468.945680	1364.819775	-251.350092	489.876617	1152.574520	5.652262	697.522392	942.500219	-53.615498	488.614313	1161.043976	-504.095922	705.398484	948.921109	-464.852405	-54.259447	1181.412982	-271.623635	104.270564	1195.208532	-418.607783	107.489516	1163.439504	-106.605283	139.692480	1144.332159	-375.797508	150.885020	1110.135675	-151.665475	-21.244760	1215.305370	-222.273199	-26.434647	1227.241060	-298.081408	50.466415	1102.679579	-96.657886	66.286202	1131.216320	-467.583581	122.145645	952.137420	-74.381208	170.848261	879.721333	-86.466277	181.512638	794.908616	-92.126858	201.353983	893.536288	-104.576905	216.237273	654.290946	-119.766401	190.331760	638.930600	-230.708531	150.427348	542.769005	-96.102858	135.450143	454.710307	-110.630846	75.482858	390.598713	-118.473666	163.161725	444.417474	-136.013116	22.466319	246.029665	-130.083873	42.238395	252.800522	-216.579154	-46.791185	209.748489	-172.043663	252.245267	207.347292	-151.172085	184.580762	179.118902	-98.312115	129.215728	1078.251939	-470.939515	214.880047	1068.392877	-473.700224	228.312753	1098.711060	-457.325583	286.346624	1015.453190	-483.283945	423.198451	930.383698	-461.573749	456.230969	912.173589	-352.363753	383.396070	823.530291	-479.011510	358.423872	742.143346	-456.229435	294.812401	680.358618	-452.279197	382.081635	733.391893	-426.366118	213.281823	559.992789	-437.280197	215.287601	574.039101	-350.309663	129.827405	541.579954	-393.232190	429.460191	510.222868	-402.228988	356.289445	477.522095	-463.180880	-176.835468	933.726508	-279.615545	-3.300722	85.670405	-484.663520	-14.832562	80.148970	-84.149092	
4	0.0200	474.640476	1463.781983	-100.261757	483.378807	1449.609660	-403.023911	462.685568	1512.290598	-255.360328	468.993515	1364.822315	-251.397392	489.905946	1152.612901	5.623006	697.514774	942.504920	-53.661283	488.711908	1160.969386	-504.046301	705.403270	948.912285	-464.889909	-54.102775	1181.735322	-270.274398	104.260763	1195.207165	-418.604003	108.040408	1164.208949	-107.113841	139.713301	1144.353395	-375.859535	150.951576	1110.323079	-151.365182	-21.214364	1215.291936	-222.315229	-26.554981	1227.344654	-298.066113	50.486259	1102.663043	-96.690090	66.277157	1131.210626	-467.619965	122.171055	952.138696	-74.404673	171.394589	879.465971	-85.909807	181.553756	794.906373	-92.145292	201.376963	893.531977	-104.591792	216.276581	654.285744	-119.765647	190.426249	638.892365	-230.713969	150.479711	542.783040	-96.090700	134.286446	453.693629	-111.663033	75.540724	390.597346	-118.458954	163.056732	444.241171	-136.257598	22.435784	246.095804	-129.700027	42.263552	252.809102	-216.563762	-46.735028	209.751704	-172.042402	252.321455	207.314220	-151.167430	184.643314	179.061933	-98.322346	129.375143	1078.543935	-471.216504	214.870875	1068.394680	-473.730746	228.097818	1098.901062	-457.744384	286.348423	1015.456083	-483.321410	423.144002	930.453635	-461.579349	456.250075	912.175751	-352.396959	383.395179	823.551350	-479.031173	358.454285	742.177973	-456.367305	294.881363	680.109313	-451.765510	382.124528	733.472079	-426.585279	213.309463	559.843838	-436.929507	215.154442	574.170785	-350.168152	129.793947	541.637012	-393.229165	429.418291	510.236593	-402.245579	356.313065	477.471325	-463.141378	-176.912755	933.729392	-279.924284	-3.298482	85.669527	-484.669357	-14.830354	80.146697	-84.149529	
